PathFileType	4	(X/Y/Z)	C:/Users/beibeiliu/ov580/test_trc/User1\sequence.13_training_dense_left.trc
DataRate	CameraRate	NumFrames	NumMarkers	Units	OrigDataRate	OrigDataStartFrame	OrigNumFrames
120	120	23	19	mm	120	238	316
Frame#	Time	ThumbCMC			ThumbMCP			ThumbIP			ThumbTip			IndexMCP			IndexPIP			IndexTip			MiddleMCP			MiddlePIP			MiddleTip			RingMCP			RingPIP			RingTip			PinkyMCP			PinkyPIP			PinkyTip			BackHand1			BackHand2			BackHand3	
		X0	Y0	Z0	X1	Y1	Z1	X2	Y2	Z2	X3	Y3	Z3	X4	Y4	Z4	X5	Y5	Z5	X6	Y6	Z6	X7	Y7	Z7	X8	Y8	Z8	X9	Y9	Z9	X10	Y10	Z10	X11	Y11	Z11	X12	Y12	Z12	X13	Y13	Z13	X14	Y14	Z14	X15	Y15	Z15	X16	Y16	Z16	X17	Y17	Z17	X18	Y18	Z18	
237	1.975	-180.493	7.15463	22.6787	-164.299	-4.32715	-10.0522	-162.45	-4.84097	-35.2365	-162.472	-8.05712	-63.6384	-175.99	50.079	-47.6303	-173.97	32.0889	-70.369	-185.095	-0.665366	-59.9219	-204.519	69.2017	-45.149	-198.566	77.9171	-71.9527	-199.092	86.0577	-101.299	-234.736	63.3977	-39.5106	-233.597	77.661	-62.5559	-230.838	87.5647	-85.8445	-259.801	43.1696	-31.6163	-271.039	49.7716	-41.6011	-283.823	68.8741	-56.5468	-239.267	39.3161	10.4471	-241.435	30.0074	39.9655	-208.074	38.9344	29.9837	
238	1.98333	-175.948	3.16745	27.0792	-164.018	-9.47883	-4.18206	-156.987	-8.97456	-34.5524	-161.109	-10.0954	-60.1946	-173.587	47.3469	-42.1129	-172.108	25.3599	-69.4331	-178.757	-5.08834	-57.4907	-203.69	66.6559	-43.7885	-200.352	75.1842	-71.6969	-193.229	82.8017	-99.8891	-230.642	62.0094	-40.2815	-230.275	74.2319	-60.8382	-229.172	84.5481	-84.9795	-261.878	39.9859	-29.9819	-269.654	49.488	-44.0576	-281.29	64.7689	-53.686	-235.166	36.8833	13.5585	-243.373	28.8068	40.6085	-204.567	33.363	33.3202	
239	1.99167	-176.118	2.85315	29.6419	-165.863	-7.91933	-3.98059	-159.109	-8.28754	-32.545	-160.049	-11.528	-61.2721	-178.948	46.8708	-42.2404	-171.602	27.3306	-67.3812	-180.988	-6.49845	-55.6577	-207.121	63.7678	-43.2161	-203.728	71.2186	-70.7541	-197.469	79.3584	-100.227	-235.497	56.4688	-38.7969	-232.92	70.8594	-64.2315	-233.938	78.4236	-84.5669	-258.839	33.6514	-26.4841	-273.038	44.6716	-43.9787	-280.781	58.4444	-50.7802	-239.291	35.5407	11.3311	-244.921	24.0452	45.2556	-207	35.4056	33.0284	
240	2	-178.375	7.99282	27.2481	-164.353	-5.19137	-1.00026	-158.647	-5.12777	-31.2484	-165.778	-8.38264	-57.1439	-186.052	47.7678	-43.3093	-179.84	24.8362	-68.68	-181.627	-3.42934	-56.4784	-217.914	61.5091	-48.2087	-213.203	67.4779	-69.4729	-207.272	77.0999	-101.361	-239.034	52.2541	-40.5608	-240.686	63.5335	-64.6475	-242.25	74.0912	-89.1288	-269.535	27.1158	-28.6516	-278.351	33.6736	-42.0242	-288.476	50.0031	-52.0848	-245.678	31.9136	13.8939	-244.911	20.6663	43.3361	-210.971	36.9898	32.7838	
241	2.00833	-183.938	13.5448	29.7187	-165.907	3.18909	-3.64103	-161.079	3.89768	-35.3157	-166.588	-4.37935	-56.6971	-193.981	49.1604	-45.5776	-185.767	29.4502	-69.7524	-185.605	-2.40239	-55.9032	-227.459	57.8465	-47.4323	-223.59	64.4918	-74.1325	-223.277	70.3066	-102.669	-251.166	45.244	-42.3944	-256.203	55.9861	-70.1259	-254.339	63.8449	-93.4656	-273.771	15.9807	-28.0468	-285.243	22.9899	-44.1354	-298.887	34.2651	-53.7027	-251.295	27.1987	13.7179	-250.867	15.9819	43.977	-220.705	37.711	27.049	
242	2.01667	-184.411	23.6497	25.4911	-171.826	13.8617	-7.48738	-163.532	11.5021	-35.7202	-166.461	1.76032	-63.5808	-203.45	49.0394	-52.5038	-194.227	25.9438	-72.7673	-187.308	-3.49969	-55.4599	-241.83	51.7546	-52.7066	-237.913	58.6773	-80.1886	-241.499	60.0275	-106.023	-264.534	33.6574	-43.9252	-264.924	44.4289	-71.3849	-272.182	48.8809	-96.6866	-276.328	7.15835	-27.6939	-287.245	11.8484	-43.2035	-306.636	19.0275	-56.0008	-252.574	23.4287	11.8397	-250.683	13.2564	44.2882	-225.514	40.8842	25.9327	
243	2.025	-190.382	31.3954	22.5015	-171.837	22.744	-8.8815	-169.68	18.2037	-37.9213	-168.91	7.10575	-62.6495	-218.567	46.0987	-55.888	-204.983	24.3233	-75.255	-187.145	-1.64302	-57.65	-252.758	43.6621	-55.0598	-255.616	46.0235	-81.9676	-259.039	45.2946	-110.884	-270.283	21.0324	-42.1906	-276.089	29.4188	-68.4742	-285.287	30.1597	-97.8164	-278.12	-4.63311	-27.8065	-291.355	-4.95067	-41.0377	-307.449	-0.162672	-56.0974	-257.232	17.9824	8.03442	-252.26	12.659	42.7836	-235.625	37.3627	25.2878	
244	2.03333	-197.21	37.6731	16.8379	-175.368	32.3527	-11.5468	-172.765	26.1375	-38.8395	-171.794	12.4893	-67.5842	-228.449	44.0768	-56.4237	-212.793	23.9977	-77.916	-188.095	4.64943	-60.5185	-263.046	35.4165	-56.3647	-267.021	32.401	-82.7581	-270.219	31.4116	-111.927	-274.677	13.0735	-44.02	-284.943	15.0756	-73.5543	-293.438	11.0008	-96.9776	-275.775	-16.1576	-24.2663	-289.115	-20.7608	-37.2859	-307.864	-19.5239	-53.9062	-261.229	8.58435	11.4859	-255.588	9.24827	41.0632	-236.655	39.7434	23.9117	
245	2.04167	-201.614	45.1635	16.2923	-181.106	40.1533	-20.1264	-175.448	33.5773	-42.8751	-173.413	18.0603	-65.28	-235.528	38.632	-61.4354	-214.708	21.7297	-78.9038	-188.479	7.08365	-61.6379	-266.764	26.3699	-55.1314	-271.444	21.8722	-83.8504	-275.9	17.329	-113.498	-276.235	4.21325	-45.4786	-286.96	-0.424546	-73.0022	-292.482	-5.6054	-94.7391	-271.097	-27.3351	-21.9208	-283.135	-31.4026	-37.7029	-302.448	-36.1488	-52.3764	-262.253	5.34768	7.9907	-253.665	6.46711	41.0501	-243.725	39.0082	20.7245	
246	2.05	-206.799	51.0871	9.68478	-187.587	45.0875	-23.7491	-180.858	38.0298	-44.4771	-175.151	22.8594	-67.667	-239.794	33.605	-65.2276	-215.376	20.0986	-81.8528	-190.787	6.94876	-62.2124	-270.203	17.0471	-58.481	-273.406	12.672	-89.1153	-275.149	9.57864	-114.771	-274.76	-10.6488	-44.2599	-282.698	-10.0726	-75.0443	-287.851	-20.0506	-98.509	-265.151	-34.2228	-26.2393	-276.11	-44.0441	-41.3809	-288.709	-50.3491	-52.2374	-260.981	2.6978	6.1115	-250.743	3.95821	41.8944	-249.649	35.4528	14.6399	
247	2.05833	-214.958	52.2419	6.60352	-192.84	47.4781	-22.032	-185.461	41.876	-51.1311	-176.044	28.8103	-69.1078	-242.417	33.9378	-66.9529	-217.78	21.1926	-84.5274	-188.291	13.8162	-70.0872	-268.737	8.16914	-61.3779	-270.529	4.2449	-88.7331	-272.402	-3.99545	-120.012	-267.929	-18.0654	-46.495	-274.55	-26.56	-75.4061	-276.993	-33.2569	-100.982	-254.349	-41.3746	-24.2064	-262.217	-51.5496	-41.4884	-276.417	-61.1749	-56.0436	-258.703	-6.20779	6.30648	-251.139	1.74847	38.9596	-252.53	31.2277	17.1778	
248	2.06667	-218.79	55.492	4.07082	-195.758	52.2163	-23.7817	-185.299	46.002	-48.6413	-174.169	31.6197	-71.0138	-242.428	26.3165	-66.1919	-215.544	20.6086	-86.2511	-184.662	13.1313	-74.2062	-263.63	-3.17283	-61.8754	-264.729	-4.22922	-93.1164	-263.815	-12.0708	-118.275	-257.552	-24.0649	-49.2345	-260.517	-30.9838	-78.1263	-259.503	-38.4757	-100.533	-241.933	-44.9689	-24.677	-245.64	-58.4775	-42.1538	-256.416	-74.5357	-59.8582	-253.298	-8.17899	3.75768	-249.851	0.473302	38.0421	-251.957	27.4004	13.546	
249	2.075	-222.609	54.9293	1.48707	-196.942	54.8763	-25.1373	-184.216	48.0251	-52.3153	-168.759	38.0394	-69.091	-235.511	22.0789	-71.5546	-210.957	19.058	-86.3993	-179.256	19.2315	-78.3964	-253.064	-7.57768	-63.8503	-251.015	-13.9943	-92.3116	-247.809	-23.2512	-121.316	-243.572	-30.132	-52.2466	-241.466	-38.5335	-82.2793	-235.765	-45.8594	-107.24	-229.352	-47.4122	-28.1744	-227.456	-60.926	-42.1138	-233.382	-75.8943	-60.5872	-248.555	-15.9962	4.49718	-244.796	-2.5406	35.979	-253.861	26.1585	11.6382	
250	2.08333	-224.11	49.7809	1.45279	-195.174	56.9206	-25.1269	-180.878	50.2717	-49.5902	-164.858	42.58	-63.9741	-228.525	22.7086	-72.4593	-200.588	16.7038	-86.624	-165.035	22.8408	-76.7905	-239.768	-13.8363	-71.4421	-233.867	-15.5161	-97.1402	-226.972	-25.1991	-121.816	-227.719	-30.6999	-55.1429	-218.426	-42.7105	-81.1608	-209.756	-45.8892	-103.688	-213.939	-46.2217	-28.5353	-207.1	-59.8816	-44.2602	-208.982	-73.6548	-61.3784	-242.408	-14.9175	1.15819	-242.319	-5.35663	33.6194	-250.559	19.3135	7.90977	
251	2.09167	-224.166	53.5489	1.90844	-193.815	59.3431	-20.5837	-176.127	53.7425	-44.7529	-158.742	44.0475	-61.3545	-216.273	20.1829	-74.2566	-187.366	22.0218	-85.1976	-159.582	29.049	-74.6449	-225.464	-11.9236	-73.2435	-215.689	-17.2955	-96.7514	-205.746	-23.0991	-123.214	-210.97	-33.1098	-59.2016	-199.139	-37.9682	-82.2473	-182.748	-43.3374	-102.782	-199.683	-43.9114	-28.2954	-190.577	-57.0415	-43.3465	-187.265	-72.6324	-64.2108	-235.678	-17.4865	-4.36665	-241.032	-9.03474	30.9289	-249.187	12.8464	2.9913	
252	2.1	-222.573	50.2047	2.65714	-190.544	61.4022	-22.7653	-171.74	59.1136	-40.1729	-149.96	52.6754	-55.1278	-209.563	23.8643	-72.1906	-174.697	25.4487	-81.1448	-147.42	33.4648	-66.8994	-213.413	-11.8185	-75.6886	-202.851	-11.7519	-97.9503	-189.839	-17.5416	-127.324	-199.404	-30.0178	-58.7123	-184.318	-33.479	-79.2343	-164.295	-37.71	-96.8647	-187.517	-47.351	-27.9953	-176.999	-54.7955	-46.1095	-171.19	-68.4756	-63.3423	-228.898	-17.3945	-4.73614	-239.203	-10.9753	27.0844	-246.607	13.6168	-0.783861	
253	2.10833	-220.529	55.2238	3.95937	-187.77	61.467	-16.0263	-166.348	63.3657	-36.45	-143.479	59.6324	-49.8495	-198.645	23.7679	-72.7408	-170.839	31.2039	-78.9019	-143.731	39.4675	-62.0777	-205.551	-6.76827	-76.9455	-195.184	-6.33286	-97.4106	-179.027	-11.065	-123.316	-189.813	-28.6599	-60.6548	-172.368	-31.7511	-79.438	-149.772	-30.4125	-97.6275	-182.597	-45.0136	-28.7361	-169.076	-53.2616	-44.3006	-163.102	-67.4016	-57.9767	-225.478	-19.7626	-9.6263	-236.742	-14.1272	22.2927	-241.916	16.7647	-4.70296	
254	2.11667	-218.759	51.2738	0.417124	-185.505	66.1361	-14.7889	-164.757	65.6354	-31.0228	-140.33	59.7574	-46.1429	-196.553	29.8943	-70.4572	-164.729	35.6673	-75.7899	-139.291	42.1016	-51.9811	-202.687	-5.94978	-72.9144	-188.72	-3.96584	-97.6083	-171.728	-6.53612	-126.392	-187.959	-25.946	-58.8167	-166.049	-25.7594	-81.9503	-142.638	-25.7902	-94.9499	-179.267	-44.0727	-27.4204	-167.189	-49.7391	-43.1684	-156.682	-63.6339	-61.2449	-224.051	-17.4673	-11.1784	-234.875	-11.9396	21.1746	-240.903	16.7463	-3.37906	
255	2.125	-217.946	49.3286	1.85613	-186.8	64.2247	-11.348	-163.87	66.3558	-28.9722	-140.264	59.4399	-42.9501	-195.505	29.1994	-70.2653	-160.094	33.7245	-73.2094	-139.983	38.1334	-49.335	-200.207	-0.823097	-76.4047	-185.057	-4.52443	-95.972	-168.223	-6.86988	-122.454	-187.241	-22.9052	-59.8571	-162.688	-26.8707	-80.3859	-141.009	-22.6916	-96.1124	-178.47	-44.2777	-31.9606	-165.285	-51.9295	-40.0205	-153.636	-64.9888	-60.3196	-222.697	-17.6607	-11.4914	-235.902	-13.2436	20.3897	-240.416	12.895	-2.55986	
256	2.13333	-221.35	52.0525	4.67243	-188.45	66.6153	-11.6059	-167.157	63.5251	-30.0497	-141.192	61.9908	-44.3996	-198.028	32.2901	-69.3701	-161.925	39.9474	-73.1619	-143.326	40.7996	-44.8523	-200.552	-5.17211	-74.4955	-186.52	-3.4628	-98.257	-170.495	-3.82251	-122.277	-185.67	-22.0701	-63.3118	-165.84	-25.242	-81.5176	-143.189	-21.6404	-95.3401	-180.327	-43.6219	-31.4881	-168.325	-48.9751	-46.6314	-157.232	-61.1591	-62.5622	-222.267	-19.1135	-12.4792	-237.746	-15.2495	19.338	-241.366	11.0165	-3.30833	
257	2.14167	-225.549	52.5977	4.9164	-193.945	67.3035	-14.2213	-173.895	64.7726	-29.8454	-149.404	60.9232	-44.1159	-200.277	34.1072	-73.7748	-166.738	36.3273	-73.1152	-150.93	39.0028	-46.5619	-207.732	-0.284081	-78.9074	-190.119	-3.03194	-103.84	-176.626	-0.620295	-126.657	-194.085	-23.3198	-61.5716	-173.394	-25.0788	-83.5887	-152.939	-18.7804	-99.566	-183.274	-42.4678	-33.7183	-169.491	-49.6237	-49.4313	-161.244	-63.5646	-65.4545	-225.065	-19.3635	-14.4438	-240.322	-17.7371	19.6523	-242.264	10.1409	-8.29612	
258	2.15	-231.268	49.093	3.45103	-202.471	63.888	-11.1492	-180.299	70.4383	-35.1763	-159.736	65.4267	-48.7479	-209.889	32.3402	-73.6028	-178.004	37.3543	-77.482	-159.082	41.075	-50.7362	-216.207	-4.60375	-79.1447	-202.958	0.406598	-106.764	-186.449	-3.58822	-131.41	-201.126	-22.4417	-67.3846	-184.787	-21.8738	-91.3557	-162.532	-21.5574	-109.062	-190.18	-42.1197	-40.563	-176.005	-51.9061	-54.0949	-169.106	-59.1169	-69.931	-231.906	-22.3199	-12.4213	-244.713	-16.7342	17.3523	-248.963	9.77491	-5.6607	
259	2.15833	-236.202	49.3228	0.47941	-208.037	65.1127	-16.5884	-189.198	67.7432	-40.5493	-166.933	69.5306	-54.0169	-219.169	30.3395	-75.0056	-189.648	42.2739	-81.3217	-167.035	45.6238	-55.309	-225.765	-3.79236	-80.7034	-215.088	-1.7258	-104.327	-200.155	-0.158799	-135.242	-209.043	-24.839	-69.3038	-196.605	-24.0641	-91.5051	-177.565	-18.831	-114.668	-198.386	-39.9483	-39.4298	-182.776	-50.4595	-54.448	-176.354	-58.4338	-77.8762	-237.343	-25.149	-11.3342	-246.848	-18.5296	18.9342	-257.751	11.2707	-6.85088	
